<?xml version="1.0" encoding="UTF-8" standalone="no"?>
<?xml-stylesheet type="text/css" href="../../style.css"?><!-- Created with Inkscape (http://www.inkscape.org/) -->

<svg
   width="13.250028mm"
   height="7.7733898mm"
   viewBox="0 0 13.250028 7.7733898"
   version="1.1"
   inkscape:version="1.2.2 (732a01da63, 2022-12-09, custom)"
   sodipodi:docname="planeIcon.svg"
   xmlns:inkscape="http://www.inkscape.org/namespaces/inkscape"
   xmlns:sodipodi="http://sodipodi.sourceforge.net/DTD/sodipodi-0.dtd"
   xmlns="http://www.w3.org/2000/svg"
   xmlns:svg="http://www.w3.org/2000/svg">
  <g
     inkscape:label="Layer 1"
     inkscape:groupmode="layer"
     transform="translate(-143.13249,-164.74857)"
     id="navIcon">
    <path
       d="m 150.9899,167.9161 -3.35421,3.97757 -3.76132,-6.4897 z m 1.51201,-1.14405 0.18909,2.66558 -1.11655,-1.75118 c -0.004,-0.007 -0.01,-0.0117 -0.0145,-0.0176 -0.005,-0.007 -0.01,-0.0134 -0.0155,-0.0191 -0.005,-0.005 -0.0106,-0.01 -0.0155,-0.0141 -0.004,-0.003 -0.008,-0.007 -0.0127,-0.01 -0.005,-0.004 -0.009,-0.007 -0.0138,-0.0102 -0.009,-0.006 -0.019,-0.01 -0.0286,-0.0141 -0.006,-0.003 -0.0106,-0.006 -0.0166,-0.008 0,0 0,-3.5e-4 -3.5e-4,-3.5e-4 l -5.47793,-1.93428 z m 2.58339,-1.50425 -2.39677,1.06892 -6.52745,-1.11372 z m -4.54554,3.89573 0.19967,-0.23636 0.61489,-0.7299 1.07315,1.6831 z m -7.17762,-4.41466 c -0.001,0 -0.002,3.5e-4 -0.003,3.5e-4 -0.005,0 -0.009,0.001 -0.0134,0.001 -0.0106,10e-4 -0.0208,0.002 -0.0307,0.004 -7.1e-4,0 -0.001,3.5e-4 -0.002,3.5e-4 -0.002,7.1e-4 -0.004,0.001 -0.006,0.002 -0.004,7e-4 -0.008,0.002 -0.012,0.004 -0.0201,0.006 -0.0388,0.0138 -0.0561,0.0247 -0.001,7e-4 -0.002,0.001 -0.003,0.002 -0.0173,0.0113 -0.0325,0.0254 -0.0462,0.0409 -0.001,0.002 -0.003,0.002 -0.005,0.004 -7.1e-4,0.001 -0.001,0.002 -0.002,0.003 -0.002,0.003 -0.005,0.005 -0.006,0.008 -7e-4,7e-4 -0.001,0.002 -0.002,0.003 -0.007,0.0106 -0.0141,0.0215 -0.0198,0.0335 -7.1e-4,0.001 -0.001,0.003 -0.002,0.005 -7.1e-4,0.001 -0.001,0.002 -0.002,0.004 -0.001,0.004 -0.003,0.007 -0.004,0.0106 -0.002,0.007 -0.006,0.0141 -0.007,0.0215 0,3.5e-4 0,3.5e-4 -3.5e-4,0.001 -3.5e-4,0.002 -3.5e-4,0.005 -0.001,0.007 -0.002,0.01 -0.005,0.0201 -0.006,0.0307 0,10e-4 3.5e-4,0.002 0,0.004 -3.6e-4,0.004 3.5e-4,0.008 3.5e-4,0.0116 -3.5e-4,0.0106 -3.5e-4,0.0215 7e-4,0.0321 0,0.002 10e-4,0.004 10e-4,0.006 3.6e-4,0.003 0.001,0.006 0.002,0.009 7e-4,0.004 0.001,0.007 0.002,0.0109 0.001,0.005 0.002,0.01 0.003,0.0148 3.6e-4,0.001 7.1e-4,0.002 0.001,0.003 0.004,0.0123 0.009,0.0243 0.0152,0.036 7.1e-4,7e-4 0.001,0.002 0.002,0.003 0,3.5e-4 3.5e-4,7e-4 7e-4,0.001 7.1e-4,0.001 7.1e-4,0.002 0.001,0.003 l 4.23863,7.31344 c 0.0374,0.0649 0.10407,0.10725 0.1785,0.11395 0.007,7e-4 0.0138,7e-4 0.0205,7e-4 0.0674,0 0.13193,-0.0296 0.17568,-0.0818 l 2.44898,-2.90407 2.67476,1.01565 c 10e-4,7.1e-4 0.0117,0.005 0.0134,0.005 0.0265,0.0102 0.054,0.0148 0.0811,0.0148 0.0681,0 0.13441,-0.0303 0.17886,-0.0854 0.0501,-0.0617 0.0621,-0.14287 0.0377,-0.2159 l -0.25188,-3.55071 3.28824,-1.46649 c 0.0991,-0.0441 0.15381,-0.15134 0.13159,-0.25753 -0.0226,-0.10583 -0.11571,-0.18203 -0.22402,-0.18274 l -12.79207,-0.0642 c -3.5e-4,0 -7.1e-4,0 -0.001,0"/>
  </g>
</svg>
