<?xml version="1.0" encoding="UTF-8" standalone="no"?>
<?xml-stylesheet type="text/css" href="../../style.css"?>
<!-- Created with Inkscape (http://www.inkscape.org/) -->

<svg
   width="11.610297mm"
   height="11.702144mm"
   viewBox="0 0 11.610297 11.702144"
   version="1.1"
   inkscape:version="1.2.2 (732a01da63, 2022-12-09, custom)"
   sodipodi:docname="rocketIcon"
   xmlns:inkscape="http://www.inkscape.org/namespaces/inkscape"
   xmlns:sodipodi="http://sodipodi.sourceforge.net/DTD/sodipodi-0.dtd"
   xmlns="http://www.w3.org/2000/svg"
   xmlns:svg="http://www.w3.org/2000/svg">
   <defs/>
   <g
      inkscape:label="Layer 1"
      inkscape:groupmode="layer"
      transform="translate(-136.40248,-174.11079)"
      id="navIcon">
      <g
         transform="matrix(0.35277777,0,0,0.35277777,-192.87958,-41.622692)"
         >
         <path
            d="m 961.023,630.513 c -0.081,-0.186 -0.177,-0.332 -0.294,-0.449 l -14.456,-14.456 c -0.273,-0.274 -0.637,-0.424 -1.024,-0.424 v 0 0 c -0.145,0 -0.288,0.021 -0.422,0.062 -0.136,0.041 -0.264,0.102 -0.383,0.181 -0.078,0.052 -0.152,0.113 -0.221,0.182 l -1.334,1.334 c -0.133,0.133 -0.311,0.203 -0.491,0.203 -0.106,0 -0.214,-0.025 -0.314,-0.076 l -0.19,-0.096 -3.419,3.419 0.096,0.188 c 0.137,0.269 0.086,0.594 -0.127,0.807 l -1.297,1.297 c -0.566,0.566 -0.567,1.487 -0.003,2.051 l 14.457,14.456 c 0.17,0.171 0.399,0.284 0.717,0.354 0.023,0.005 0.046,0.011 0.068,0.018 l 11.07,3.648 c 0.017,0.006 0.034,0.012 0.05,0.019 0.042,0.017 0.083,0.032 0.126,0.044 0.012,0.002 0.024,0.005 0.036,0.008 0.35,0.084 0.707,-0.015 0.958,-0.265 0.235,-0.236 0.339,-0.571 0.281,-0.901 -0.002,-0.008 -0.004,-0.015 -0.006,-0.023 -0.016,-0.08 -0.04,-0.154 -0.072,-0.226 -0.011,-0.022 -0.02,-0.046 -0.028,-0.069 L 961.069,630.6 c -0.017,-0.029 -0.032,-0.057 -0.046,-0.087 z M 953.73,614.53 c -0.02,-0.09 -0.013,-0.185 0.023,-0.273 0.199,-0.491 0.086,-1.048 -0.286,-1.42 -0.247,-0.247 -0.575,-0.384 -0.925,-0.384 h -0.002 c -0.349,0 -0.677,0.136 -0.922,0.381 -0.019,0.019 -0.033,0.04 -0.048,0.062 l -0.05,0.065 c -0.047,0.06 -0.106,0.105 -0.173,0.136 l -2.757,2.757 4.256,4.256 z m -18.94,15.454 c -0.016,0.025 -0.034,0.047 -0.054,0.069 -0.016,0.017 -0.037,0.035 -0.058,0.051 -0.485,0.512 -0.475,1.323 0.027,1.826 0.318,0.318 0.77,0.448 1.207,0.347 0.061,-0.014 0.123,-0.015 0.183,-0.005 l 5.716,-0.909 -4.201,-4.199 z m 27.42,-0.203 c 0.053,0.064 0.094,0.138 0.121,0.218 l 3.774,11.329 c 0.065,0.148 0.114,0.298 0.148,0.457 0.004,0.013 0.007,0.027 0.009,0.039 0.158,0.792 -0.087,1.606 -0.656,2.174 -0.586,0.586 -1.417,0.824 -2.23,0.641 -0.026,-0.004 -0.051,-0.01 -0.077,-0.017 -0.108,-0.029 -0.207,-0.062 -0.301,-0.101 l -11.014,-3.629 c -0.564,-0.129 -1.009,-0.365 -1.363,-0.718 l -8.003,-8.003 -6.527,1.038 c -0.047,0.007 -0.093,0.008 -0.139,0.001 -0.697,0.105 -1.396,-0.122 -1.901,-0.627 -0.858,-0.858 -0.871,-2.246 -0.036,-3.123 0.014,-0.02 0.03,-0.039 0.048,-0.058 l 2.894,-2.892 -0.793,-0.793 c -1.105,-1.106 -1.104,-2.905 0.003,-4.013 l 0.94,-0.94 -0.096,-0.189 c -0.138,-0.267 -0.086,-0.594 0.127,-0.806 l 4.132,-4.132 c 0.213,-0.212 0.538,-0.264 0.805,-0.127 l 0.19,0.096 0.978,-0.978 c 0.536,-0.535 1.248,-0.831 2.006,-0.831 v 0 c 0.757,0 1.469,0.295 2.005,0.831 l 0.628,0.628 2.927,-2.928 c 0.024,-0.025 0.052,-0.047 0.081,-0.064 0.023,-0.029 0.047,-0.056 0.073,-0.083 0.421,-0.42 0.981,-0.653 1.577,-0.653 h 0.002 c 0.598,10e-4 1.158,0.234 1.579,0.656 0.587,0.587 0.796,1.444 0.556,2.23 0,0.028 -10e-4,0.056 -0.006,0.084 l -1.032,6.515 8.071,8.071 c 0.199,0.199 0.364,0.429 0.5,0.697"
            />
         <path
            d="m 948.483,623.885 -3.088,-3.088 v 0 c -0.213,-0.214 -0.498,-0.332 -0.801,-0.332 h -0.001 c -0.303,0 -0.588,0.118 -0.802,0.332 l -1.458,1.457 c -0.442,0.443 -0.442,1.163 0,1.604 l 3.088,3.089 c 0.214,0.214 0.498,0.331 0.802,0.331 v 0 c 0.303,0 0.589,-0.118 0.803,-0.332 l 1.457,-1.458 c 0.215,-0.214 0.333,-0.499 0.332,-0.801 0,-0.303 -0.117,-0.588 -0.332,-0.802 z m -0.477,4.042 c -0.476,0.475 -1.109,0.738 -1.783,0.738 v 0 c -0.674,0 -1.306,-0.262 -1.782,-0.737 l -3.088,-3.089 c -0.983,-0.982 -0.983,-2.581 0,-3.566 l 1.458,-1.457 c 0.475,-0.476 1.108,-0.738 1.782,-0.738 h 0.002 c 0.674,10e-4 1.305,0.263 1.78,0.738 l 3.089,3.088 c 0.475,0.476 0.738,1.109 0.738,1.782 10e-4,0.673 -0.262,1.306 -0.738,1.783 l -1.458,1.458"
            />
         <path
            d="m 955.576,630.37 c -0.491,-0.49 -1.142,-0.761 -1.836,-0.762 h -10e-4 c -0.692,0 -1.343,0.271 -1.833,0.76 -0.491,0.49 -0.761,1.143 -0.761,1.836 10e-4,0.692 0.271,1.345 0.762,1.835 0.49,0.49 1.141,0.761 1.834,0.761 v 0 c 0.693,0 1.345,-0.271 1.836,-0.761 0.49,-0.49 0.76,-1.142 0.76,-1.834 0,-0.693 -0.27,-1.345 -0.761,-1.835 z m 0.04,5.349 c -0.571,0.305 -1.21,0.468 -1.875,0.468 v 0 0 c -1.063,0 -2.063,-0.416 -2.814,-1.167 -0.753,-0.752 -1.168,-1.752 -1.168,-2.816 0,-1.063 0.414,-2.063 1.167,-2.816 0.751,-0.752 1.75,-1.166 2.813,-1.166 h 0.002 c 1.063,10e-4 2.063,0.416 2.816,1.168 0.752,0.752 1.166,1.752 1.166,2.815 0,1.063 -0.414,2.063 -1.166,2.815 -0.282,0.281 -0.599,0.516 -0.941,0.699"
            />
      </g>
   </g>
</svg>
